<svg viewBox="0 0 568 501">
<path d="M123.121 33.6637C188.241 82.5526 258.281 181.681 284 234.873c25.719-53.192 95.759-152.3204 160.879-201.2093C491.866-1.61183 568-28.9064 568 57.9464c0 17.3452-9.945 145.7126-15.778 166.5546-20.275 72.453-94.155 90.933-159.875 79.748C507.222 323.8 536.444 388.56 473.333 453.32c-119.86 122.992-172.272-30.859-185.702-70.281-2.462-7.227-3.614-10.608-3.631-7.733-.017-2.875-1.169.506-3.631 7.733-13.43 39.422-65.842 193.273-185.7023 70.281-63.1111-64.76-33.8889-129.52 80.9863-149.071-65.72 11.185-139.5995-7.295-159.8752-79.748C9.94525 203.659 0 75.2916 0 57.9464 0-28.9064 76.1345-1.61183 123.121 33.6637Z"/>
</svg>