<?xml version="1.0" encoding="UTF-8" standalone="no"?>
<!-- Generator: Adobe Illustrator 16.0.0, SVG Export Plug-In . SVG Version: 6.00 Build 0)  -->

<svg
   xmlns:dc="http://purl.org/dc/elements/1.1/"
   xmlns:cc="http://creativecommons.org/ns#"
   xmlns:rdf="http://www.w3.org/1999/02/22-rdf-syntax-ns#"
   xmlns:svg="http://www.w3.org/2000/svg"
   xmlns="http://www.w3.org/2000/svg"
   xmlns:sodipodi="http://sodipodi.sourceforge.net/DTD/sodipodi-0.dtd"
   xmlns:inkscape="http://www.inkscape.org/namespaces/inkscape"
   version="1.1"
   id="Layer_1"
   x="0px"
   y="0px"
   width="780.38611"
   height="365.09009"
   viewBox="0 0 780.38608 365.09009"
   enable-background="new 0 0 612 792"
   xml:space="preserve"
   inkscape:version="0.48.2 r9819"
   sodipodi:docname="The X-Files logo.svg"><metadata
   id="metadata15"><rdf:RDF><cc:Work
       rdf:about=""><dc:format>image/svg+xml</dc:format><dc:type
         rdf:resource="http://purl.org/dc/dcmitype/StillImage" /></cc:Work></rdf:RDF></metadata><defs
   id="defs13">
	
	
	
</defs><sodipodi:namedview
   pagecolor="#ffffff"
   bordercolor="#666666"
   borderopacity="1"
   objecttolerance="10"
   gridtolerance="10"
   guidetolerance="10"
   inkscape:pageopacity="0"
   inkscape:pageshadow="2"
   inkscape:window-width="1600"
   inkscape:window-height="837"
   id="namedview11"
   showgrid="false"
   fit-margin-top="0"
   fit-margin-left="0"
   fit-margin-right="0"
   fit-margin-bottom="0"
   inkscape:zoom="1"
   inkscape:cx="340.74307"
   inkscape:cy="146.38421"
   inkscape:window-x="-8"
   inkscape:window-y="-8"
   inkscape:window-maximized="1"
   inkscape:current-layer="Layer_1" />
<path
   style="fill:#fe0000;fill-opacity:1;fill-rule:evenodd"
   d="m 307.37744,127.36458 c -24.11863,0 -43.39813,19.2795 -43.39813,43.39813 0,24.01258 19.2795,43.39814 43.39813,43.39814 24.00753,0 43.39814,-19.3906 43.39814,-43.39814 0,-24.11863 -19.39061,-43.39813 -43.39814,-43.39813 z m 0,3.62967 c 21.98755,0 39.76846,17.66982 39.76846,39.76846 0,21.98755 -17.77586,39.76847 -39.76846,39.76847 -22.09865,0 -39.76847,-17.78092 -39.76847,-39.76847 -0.006,-22.09864 17.66982,-39.76846 39.76847,-39.76846 z"
   id="path9"
   inkscape:connector-curvature="0" /><path
   style="fill:#000000;fill-rule:evenodd"
   d="m 662.92649,0.01079657 c -5.05921,-0.12427 -9.86823,0.78906 -14.20303,4.57652003 -12.00376,0 -18.92852,-0.0252 -31.72008,-0.47318 -5.60547,5.9438204 -13.94422,7.2050404 -17.20145,15.6233304 5.27217,0 4.40231,5.58526 5.52341,8.83744 4.03997,-0.44945 10.45468,-2.78885 14.04521,2.36717 7.63049,13.24101 23.63888,10.47615 20.8311,28.09043 -1.57054,5.60547 -5.12066,12.50497 -10.73118,15.3077 -4.03997,4.71162 -10.82838,9.23765 -8.364,17.201448 -10.88267,9.983775 -1.65007,23.181865 -8.04837,34.402875 -7.62545,-0.44944 -10.0204,9.96358 -17.20145,8.83744 -10.43828,-3.69657 -15.21933,-14.91255 -20.04205,-22.0936 -4.37831,-1.57053 -9.98756,-4.41114 -14.36084,-2.84059 -0.3333,2.01998 -1.50867,2.55654 -1.73592,4.57652 -0.2222,2.02504 -0.78905,6.25564 -0.78905,8.04839 0,0.89888 -0.94688,3.04638 -0.94688,3.94528 0,0.67164 -1.04029,2.32803 -1.26248,3.78747 -0.44944,1.90384 -0.31562,4.0627 -0.31562,4.73434 0,1.57054 0.85849,-0.26159 0.63124,1.42031 9.98882,5.16106 19.9865,8.44859 27.617,16.41238 3.59052,9.20103 -10.09742,15.56778 -8.52182,23.19827 8.41324,13.68541 -17.5966,11.98988 -10.41555,24.77639 -8.41324,5.27721 -15.16505,11.63133 -18.30613,21.62016 5.94887,6.06501 -5.71908,12.85342 -8.5218,18.46393 -2.80779,0 -4.76717,-0.77138 -7.57496,-1.10468 -1.57053,8.74654 -5.16863,15.9137 -1.5781,24.77639 l -8.36401,2.8406 c -18.05867,2.80273 -13.5781,25.55409 -24.46077,36.77006 -2.35833,1.24229 0.75497,4.38842 -2.8406,3.15623 -3.58548,10.77157 -16.83027,4.45154 -24.46077,7.25932 -7.18104,4.03997 -16.67119,-1.98211 -23.51389,2.84061 -10.43828,-5.94886 -13.6589,7.08636 -23.19827,3.94528 -3.25218,4.03492 0.26259,12.36358 -5.68121,14.04522 -2.02,8.41829 6.7884,13.52001 8.364,20.35766 2.80777,1.57054 5.71403,0.12878 8.52182,-0.31562 2.01493,2.01999 2.6891,4.74318 3.47184,7.10151 49.5856,3.24713 90.21383,2.0364 135.87561,-1.10468 7.18105,-2.80273 15.0552,-5.26837 19.09518,-12.78272 4.82271,-34.10241 -38.0679,-19.62163 -54.44493,-35.66537 7.18105,-8.41324 10.91423,-18.89066 12.15148,-28.87949 17.16482,-7.18105 8.71876,-26.82415 12.30928,-39.61066 3.25218,-4.48436 7.96254,-7.59262 14.36084,-7.25932 11.22102,-2.01999 5.72665,-17.62564 10.09992,-26.03888 l -1.10468,-1.57811 c 4.37327,-1.57559 3.85692,-7.91456 8.67963,-8.36401 7.96884,4.82777 21.9522,15.51602 20.8311,29.98417 5.94381,12.00376 -3.15875,29.75439 10.41556,38.50598 10.88267,0.44439 3.58168,9.08614 12.78271,12.78272 7.17095,7.5194 -5.95895,13.6753 -3.15622,22.0936 1.57054,1.23219 3.9516,-2.01873 4.73434,0.78905 3.59053,6.05491 -0.33077,9.87647 -3.47185,14.36084 -7.18105,1.57559 -12.54537,-1.68164 -19.72642,0 -9.65049,2.80778 -9.65806,13.20439 -11.67804,20.04204 6.84775,4.37832 8.96999,13.48467 7.73276,19.09518 123.41101,7.6305 111.9514,9.19977 148.18488,-0.78906 4.37832,-6.3882 7.57496,-14.27498 7.57496,-20.67329 0,-13.241 -14.78504,-14.76357 -23.19829,-19.25299 -6.8427,-2.01493 -16.78481,-2.89868 -20.04205,3.15623 l -1.26248,-0.47318 -3.94528,3.62966 c -20.86647,4.48942 -27.19659,-20.78186 -43.24033,-29.1951 -4.37326,-16.49319 -5.76453,-33.64287 -12.94053,-49.23716 -5.61051,-5.27216 -13.17662,-9.14549 -20.35767,-7.57495 -3.59052,-7.18105 -9.97242,-13.17788 -11.20461,-21.14672 -5.94886,-7.62545 -7.1621,-18.86541 -9.6265,-27.61699 -2.80777,-10.88268 -17.65214,-22.41553 -2.84059,-33.29821 5.27215,-7.18105 2.46816,-18.06624 9.31086,-23.6717 8.7516,-2.46944 11.99494,-13.62733 12.78274,-21.14673 -0.7878,-4.48942 5.65089,-6.85532 4.41871,-11.678041 7.62544,-6.847751 14.73958,-10.846067 18.77956,-20.042052 -1.5756,-6.0549 7.25048,-10.80313 4.89215,-17.20143 6.3983,-36.46075 46.67808,-22.82584 68.33232,-29.66855 5.16107,-1.57054 11.36243,-6.04481 11.36243,-11.99366 -4.03997,-6.8427 -6.08143,-16.2861404 -14.04522,-18.3061204 l -46.39655,-1.2625 c -9.04574,2.03575 -18.23809,-1.21340003 -26.67012,-1.42030003 z M 591.75356,146.77538 l 4.26091,0 0,39.76847 4.2609,0 0,-4.89215 4.26091,0 0,8.52181 -7.73277,0 c -0.89888,0 -1.77884,-0.33986 -2.68279,-0.78905 -0.78274,-0.56055 -1.39757,-1.24608 -1.73592,-2.36717 -0.44945,-1.00495 -0.63124,-2.19295 -0.63124,-3.31404 l 0,-36.92787 z"
   id="path3038"
   inkscape:connector-curvature="0" /><path
   style="fill:#000000;fill-rule:evenodd"
   d="m 512.91983,5.7702866 c 11.55936,-5.94887003 24.01258,4.3732604 36.01129,-1.1211 3.59557,1.57053 6.8427,0.78275 10.88772,0 7.51435,5.16106 27.14862,-5.61050003 26.02247,9.9837804 -2.46438,7.18105 1.12615,15.59429 -5.60547,21.2048 -13.241,7.6305 -24.46202,-12.00377 -37.24853,-1.23725 0,21.65425 27.14861,37.24855 15.92758,61.256077 -5.60545,1.232197 -3.14107,7.625446 -9.19598,5.610506 -15.59428,-3.141078 -21.98755,-23.224783 -25.57807,-33.991303 -2.46438,-2.80778 -8.41323,-6.05996 -8.41323,-12.00376 -5.60547,-1.23725 -11.67047,0.78273 -12.45322,-6.84272 2.46439,-4.03996 -0.78274,-7.18105 -2.80778,-10.43322 -20.417,-4.82776 -40.38456,14.4732 -60.01883,0 2.3533,-7.18105 -13.241,-17.95263 -0.78778,-21.98754 0.78778,-2.35329 3.59051,-7.9637904 6.3983,-10.4332204 l 0,0 0,0 0.78274,0.44945 0,0 0,0 c 10.43322,-13.24102 27.60311,0.78273 40.83907,-0.7878 6.8427,1.56548 17.61427,-4.48942003 25.23972,0.3333 l 0,0 0,0 0,0 0,0 z"
   id="path3036"
   inkscape:connector-curvature="0" /><path
   style="fill:#000000;fill-rule:evenodd"
   d="M -2.8109015e-6,146.79053 H 12.791557 v 3.81273 H 8.6404872 v 39.60182 h -4.37327 V 150.60326 H 0.00504719 v -3.81273 l -0.0050000009,0 0,0 0,0 z"
   id="path3034"
   inkscape:connector-curvature="0" /><path
   style="fill:#000000;fill-rule:evenodd"
   d="m 76.512007,190.21013 v -43.41455 h 4.26217 v 19.85646 h 4.37327 v -19.85646 h 4.26722 v 43.41455 h -4.26722 v -19.85646 h -4.37327 v 19.85646 h -4.26217 l 0,0 0,0 0,0 z"
   id="path3032"
   inkscape:connector-curvature="0" /><path
   style="fill:#000000;fill-rule:evenodd"
   d="m 153.70071,183.70577 v -30.29473 l 0,0 0,0 c 0,-1.01 0.2222,-2.13109 0.67165,-3.14108 0.56054,-1.12109 1.23219,-1.90384 2.01493,-2.46943 0.78779,-0.67165 1.57559,-1.01 2.46944,-1.01 l 0,0 0,0 h 7.5194 v 13.68541 h -4.26218 v -9.87268 h -4.15107 v 16.04373 h 4.15107 v 3.70163 h -4.15107 v 16.14978 h 4.15107 v -9.75653 h 4.26218 v 13.46321 h -7.5194 l 0,0 0,0 c -0.89385,0 -1.79275,-0.3333 -2.58054,-0.78275 -0.78779,-0.56054 -1.45943,-1.34834 -1.90383,-2.46943 -0.44945,-1.00494 -0.67165,-2.13109 -0.67165,-3.24713 l 0,0 0,0 0,0 0,0 z"
   id="path3030"
   inkscape:connector-curvature="0" /><path
   style="fill:#000000;fill-rule:evenodd"
   d="m 299.43259,190.21013 3.59052,-22.09865 -3.59052,-21.19975 h 4.3783 l 3.14108,17.38703 2.80779,-17.38703 h 4.60051 l -3.36328,21.19975 4.15108,22.09865 h -4.60052 l -3.59052,-19.06867 -3.02999,19.06867 h -4.49445 l 0,0 0,0 0,0 z"
   id="path3028"
   inkscape:connector-curvature="0" /><path
   style="fill:#000000;fill-rule:evenodd"
   d="m 767.14008,147.68943 h -2.69163 v -0.8989 h 6.3983 v 0.8989 h -2.58558 v 7.29215 h -1.12109 v -7.29215 l 0,0 0,0 0,0 z"
   id="path3026"
   inkscape:connector-curvature="0" /><path
   style="fill:#000000;fill-rule:evenodd"
   d="m 775.78057,154.98158 -2.69164,-6.84271 v 0.3333 6.50941 h -1.12613 v -8.19105 h 1.68668 l 2.58054,6.73161 2.58053,-6.73161 h 1.57558 v 8.19105 h -1.00998 v -6.50941 -0.3333 l -2.69164,6.84271 h -0.90394 l 0,0 0,0 0,0 z"
   id="path3024"
   inkscape:connector-curvature="0" /><path
   style="fill:#000000;fill-rule:evenodd"
   d="m 459.4104,146.79053 v 13.68541 h -4.37327 v -9.87268 h -4.03997 v 16.04373 h 4.15107 v 3.70163 h -4.15107 v 19.85646 h -4.37326 v -36.79909 l 0,0 0,0 c 0,-1.01 0.33328,-2.01999 0.67163,-3.02998 0.56055,-1.00999 1.23725,-1.90889 1.9089,-2.58053 0.89889,-0.67165 1.68163,-1.01 2.46943,-1.01 l 0,0 0,0 h 7.73654 l 0,0.005 0,0 0,0 z"
   id="path3022"
   inkscape:connector-curvature="0" /><path
   style="fill:#000000;fill-rule:evenodd"
   d="m 523.01976,146.79053 h 4.37326 v 43.41455 h -4.37326 v -43.41455 l 0,0 0,0 0,0 z"
   id="path3020"
   inkscape:connector-curvature="0" /><path
   style="fill:#000000;fill-rule:evenodd"
   d="m 668.75162,183.70577 v -30.29473 l 0,0 0,0 c 0,-1.01 0.22725,-2.13109 0.6767,-3.14108 0.44945,-1.12109 1.1211,-1.90384 2.01493,-2.46943 0.7878,-0.67165 1.57559,-1.01 2.35834,-1.01 l 0,0 0,0 h 7.6305 v 13.68541 h -4.37327 v -9.87268 h -4.03998 v 16.04373 h 4.03998 v 3.70163 h -4.03998 v 16.14978 h 4.03998 v -9.75653 h 4.37327 v 13.46321 h -7.6305 l 0,0 0,0 c -0.78275,0 -1.68164,-0.3333 -2.58054,-0.78275 -0.78273,-0.56054 -1.45943,-1.34834 -1.79273,-2.46943 -0.44945,-1.00494 -0.6767,-2.13109 -0.6767,-3.24713 l 0,0 0,0 0,0 0,0 z"
   id="path3016"
   inkscape:connector-curvature="0" /><path
   style="fill:#000000;fill-rule:evenodd"
   d="m 758.2774,173.2675 v 10.65542 l 0,0 0,0 c 0,1.00999 -0.2222,2.24219 -0.6767,3.02998 -0.4444,1.12614 -1.1211,1.90889 -2.01495,2.46943 -0.78273,0.44945 -1.90383,0.78275 -2.69162,0.78275 l 0,0 0,0 h -7.51435 v -7.9638 h 4.26217 v 4.26217 h 4.37327 v -16.14978 h -3.14107 l 0,0 0,0 c -1.00495,0 -2.01495,-0.33835 -2.80273,-0.7878 -0.78275,-0.67164 -1.68165,-1.68163 -2.01999,-2.80273 -0.44945,-1.00999 -0.67165,-2.35833 -0.67165,-3.59052 l 0,0 0,0 v -9.76158 l 0,0 0,0 c 0,-1.1211 0.2222,-2.35329 0.78275,-3.36833 0.56054,-1.01504 1.34834,-1.90384 2.13108,-2.35328 0.89889,-0.56055 1.90889,-0.8989 3.03504,-0.8989 l 0,0 0,0 h 6.9538 v 8.19105 h -4.26723 v -4.37832 h -4.37327 v 16.04373 h 3.36833 l 0,0 0,0 c 0.89889,0 1.79274,0.3333 2.58052,1.01 0.8989,0.67164 1.5756,1.57559 1.90385,2.58053 0.5656,1.00999 0.7878,2.24218 0.7878,3.25217 l 0,0 0,0 v -0.22219 l -0.006,0 0,0 0,0 z"
   id="path3014"
   inkscape:connector-curvature="0" />
</svg>