<svg viewBox="-8 0 417 400" class="github" aria-label="GitHub - @rodaine">
<path d="M200,4.9C89.6,4.9,0,94.5,0,204.9c0,88.3,57.7,163.2,136.2,190.2c9.8,1.2,13.5-4.9,13.5-9.8c0-4.9,0-17.2,0-34.4
	c-55.2,12.3-67.5-27-67.5-27c-8.6-23.3-22.1-29.4-22.1-29.4c-18.4-12.3,1.2-12.3,1.2-12.3C81,283.4,92,303.1,92,303.1
	c18.4,30.7,46.6,22.1,57.7,17.2c1.2-13.5,7.4-22.1,12.3-27c-44.2-4.9-90.8-22.1-90.8-99.4c0-22.1,7.4-39.3,20.9-54
	c-1.2-3.7-8.6-24.5,2.5-51.5c0,0,17.2-4.9,55.2,20.9c16-4.9,33.1-6.1,50.3-6.1s34.4,2.5,50.3,6.1c38-25.8,55.2-20.9,55.2-20.9
	c11,27,3.7,47.9,2.5,52.8c12.3,13.5,20.9,31.9,20.9,54c0,77.3-46.6,93.3-90.8,98.2c7.4,6.1,13.5,18.4,13.5,36.8c0,27,0,47.9,0,55.2
	c0,4.9,3.7,11,13.5,9.8c79.8-27,136.2-101.8,136.2-190.2C400,94.5,310.4,4.9,200,4.9z"/>
</svg>
